<?xml version="1.0" encoding="UTF-8" standalone="no"?>
<svg
   xmlns:dc="http://purl.org/dc/elements/1.1/"
   xmlns:cc="http://creativecommons.org/ns#"
   xmlns:rdf="http://www.w3.org/1999/02/22-rdf-syntax-ns#"
   xmlns:svg="http://www.w3.org/2000/svg"
   xmlns="http://www.w3.org/2000/svg"
   xmlns:sodipodi="http://sodipodi.sourceforge.net/DTD/sodipodi-0.dtd"
   xmlns:inkscape="http://www.inkscape.org/namespaces/inkscape"
   version="1.1"
   id="aa_1"
   x="0px"
   y="0px"
   width="200px"
   height="222.977px"
   viewBox="0 0 200 222.977"
   enable-background="new 0 0 200 222.977"
   xml:space="preserve"
   sodipodi:docname="logo-shape.svg"
   inkscape:version="0.92.4 (5da689c313, 2019-01-14)"><metadata
     id="metadata13"><rdf:RDF><cc:Work
         rdf:about=""><dc:format>image/svg+xml</dc:format><dc:type
           rdf:resource="http://purl.org/dc/dcmitype/StillImage" /></cc:Work></rdf:RDF></metadata><sodipodi:namedview
     pagecolor="#ffffff"
     bordercolor="#666666"
     borderopacity="1"
     objecttolerance="10"
     gridtolerance="10"
     guidetolerance="10"
     inkscape:pageopacity="0"
     inkscape:pageshadow="2"
     inkscape:window-width="1920"
     inkscape:window-height="1027"
     id="namedview11"
     showgrid="false"
     inkscape:zoom="2.6545005"
     inkscape:cx="-64.472767"
     inkscape:cy="82.298866"
     inkscape:window-x="-8"
     inkscape:window-y="-8"
     inkscape:window-maximized="1"
     inkscape:current-layer="aa_1" /><defs
     class="defs"
     id="defs2" /><path
     d="M 98.881799,10.790587 177.01505,55.901835 98.881799,101.0121 20.748549,55.901835 98.881799,10.790587 m 0,-8.5892888 c -1.48295,0 -2.965901,0.3842861 -4.294151,1.1508876 L 16.454398,48.463436 c -2.657486,1.534188 -4.295136,4.370022 -4.295136,7.438399 0,3.068377 1.63765,5.905197 4.295136,7.439385 l 78.13325,45.11026 c 1.329236,0.7666 2.812186,1.14991 4.294151,1.14991 1.483931,0 2.965901,-0.38429 4.295141,-1.14991 l 78.13324,-45.11026 c 2.65749,-1.534188 4.29416,-4.371008 4.29416,-7.439385 0,-3.068377 -1.63667,-5.904211 -4.29416,-7.438399 L 103.17792,3.3521858 C 101.8477,2.5855843 100.36573,2.2012982 98.881799,2.2012982 Z"
     class="color c1"
     id="path4"
     inkscape:connector-curvature="0"
     style="fill:#dd5f7a;stroke-width:0.985349" /><path
     d="m 10.056527,77.990404 78.13325,45.111246 v 90.22053 L 10.056527,168.21093 V 77.990404 m 0,-8.589287 c -1.4829508,0 -2.965901,0.3833 -4.2951368,1.149902 -2.6565009,1.534188 -4.294151,4.371008 -4.294151,7.439385 v 90.220526 c 0,3.06739 1.6376501,5.90421 4.294151,7.4384 l 78.1332508,45.11026 c 1.329235,0.76759 2.8112,1.15089 4.29415,1.15089 1.482951,0 2.965901,-0.3833 4.295137,-1.15089 2.657486,-1.53419 4.294151,-4.37002 4.294151,-7.4384 v -90.22052 c 0,-3.06838 -1.636665,-5.9052 -4.294151,-7.43939 L 14.351664,70.551019 c -1.329236,-0.766602 -2.811201,-1.149902 -4.295137,-1.149902 z"
     class="color c2"
     id="path6"
     inkscape:connector-curvature="0"
     style="fill:#a32f48;stroke-width:0.985349" /><path
     d="M 189.94775,76.732113 V 166.95264 L 111.8145,212.0629 v -90.21954 l 78.13325,-45.111247 m 0,-8.589287 c -1.48393,0 -2.9659,0.383301 -4.29513,1.149902 l -78.13325,45.110262 c -2.65749,1.53517 -4.29415,4.37101 -4.29415,7.44037 v 90.21954 c 0,3.06936 1.63666,5.90421 4.29415,7.43939 1.32923,0.7666 2.81218,1.15088 4.29513,1.15088 1.48295,0 2.96591,-0.38428 4.29317,-1.15088 l 78.13424,-45.11125 c 2.6565,-1.53419 4.29415,-4.37002 4.29415,-7.4384 V 76.732113 c 0,-3.069362 -1.63765,-5.905196 -4.29415,-7.439385 -1.32826,-0.766601 -2.81219,-1.149902 -4.29416,-1.149902 z"
     class="color c3"
     id="path8"
     inkscape:connector-curvature="0"
     style="fill:#e23a59;stroke-width:0.985349" /></svg>